#!OML:ASF \\Waltz\H\Terrain\Patient Classification 1\Animal2\Wednesday\Animal2.ASF
:FULLY-SPECIFIED
:DEGREES
100
root 28.7038 16.004 -29.4744 19.7123 -34.0748 1.48278
lowerback 15.7512 -3.40001 0.0738184
upperback 1.49681 -4.57947 -1.1183
thorax -7.3192 -2.24468 -0.234869
lowerneck 11.6825 5.64004 13.874
upperneck -14.8558 7.55375 -17.4253
head -5.05312 4.33176 -8.46207
rclavicle 2.50469e-014 -6.67916e-014
rhumerus -32.615 -26.7114 -12.3171
rradius 132.515
rwrist -42.7547
rhand -13.3662 -7.17895
rfingers 7.12502
rthumb 12.7402 -36.7703
lclavicle 2.50469e-014 -6.67916e-014
lhumerus -29.4806 19.235 -3.68325
lradius 125.619
lwrist 80.9772
lhand -40.2702 43.3839
lfingers 7.12502
lthumb -13.2282 72.9442
rfemur -58.1171 -16.7621 11.3248
rtibia 88.0199
rfoot -6.47712 -1.9659
rtoes 25.0266
lfemur -34.8783 9.69455 -15.6318
ltibia 54.6396
lfoot -36.2404 10.6895
ltoes -48.4252
101
root 28.6208 16.0655 -29.3689 19.4288 -33.6973 1.53144
lowerback 15.8115 -3.69157 0.273305
upperback 1.54362 -4.90686 -0.859239
thorax -7.29901 -2.40437 0.00178891
lowerneck 11.7691 5.72541 13.9987
upperneck -14.8567 7.68577 -17.569
head -5.033 4.40443 -8.53904
rclavicle 5.4467e-014 -3.65764e-014
rhumerus -32.4251 -27.1395 -11.3632
rradius 132.583
rwrist -42.946
rhand -13.1249 -6.90962
rfingers 7.12502
rthumb 12.9728 -36.4863
lclavicle 5.4467e-014 -3.65764e-014
lhumerus -28.4071 19.1348 -3.72001
lradius 125.574
lwrist 80.4891
lhand -40.2316 42.9939
lfingers 7.12502
lthumb -13.1911 72.5566
rfemur -58.7852 -17.5111 11.482
rtibia 88.4482
rfoot -6.74087 -2.52687
rtoes 27.1171
lfemur -33.3265 9.43944 -15.4333
ltibia 53.069
lfoot -36.3524 8.94333
ltoes -46.4644
102
root 28.5325 16.134 -29.2628 19.1989 -33.4231 1.61837
lowerback 15.7255 -3.91389 0.465978
upperback 1.64393 -5.15434 -0.720954
thorax -7.14989 -2.52897 0.0846473
lowerneck 11.8973 5.70965 14.4306
upperneck -15.0937 7.72394 -17.7056
head -5.09366 4.41401 -8.67963
rclavicle 9.54166e-014 2.14687e-014
rhumerus -32.3268 -27.7792 -10.4239
rradius 132.679
rwrist -42.9575
rhand -13.0608 -6.85194
rfingers 7.12502
rthumb 13.0346 -36.4247
lclavicle 9.54166e-014 2.14687e-014
lhumerus -26.9791 19.069 -3.84009
lradius 125.466
lwrist 79.9381
lhand -40.3813 42.4264
lfingers 7.12502
lthumb -13.3354 71.9797
rfemur -59.4227 -18.112 11.56
rtibia 88.4733
rfoot -7.50337 -2.93018
rtoes 28.3974
lfemur -31.7457 9.30352 -15.3232
ltibia 51.2246
lfoot -35.7452 9.17617
ltoes -46.8917
103
root 28.4372 16.2084 -29.1526 19.0367 -33.309 1.81997
lowerback 15.5384 -4.07065 0.505892
upperback 1.6617 -5.34354 -0.580161
thorax -7.01912 -2.62114 0.237692
lowerneck 11.9258 5.713 14.9079
upperneck -15.2601 7.77752 -17.9412
head -5.10502 4.43289 -8.85257
rclavicle 8.70677e-014 0
rhumerus -32.0692 -28.3297 -9.49982
rradius 132.715
rwrist -42.7724
rhand -13.0887 -6.50194
rfingers 7.12502
rthumb 13.0077 -36.0764
lclavicle 8.70677e-014 0
lhumerus -25.3886 19.0799 -3.78612
lradius 125.335
lwrist 79.4678
lhand -40.3337 42.203
lfingers 7.12502
lthumb -13.2895 71.7593
rfemur -60.2467 -18.5833 11.5759
rtibia 88.2068
rfoot -8.19311 -3.52147
rtoes 25.7748
lfemur -30.1306 9.16722 -15.3619
ltibia 49.1071
lfoot -35.1035 9.56233
ltoes -47.5761
104
root 28.3343 16.2894 -29.0339 18.8431 -33.3116 1.99567
lowerback 15.4251 -4.29323 0.517187
upperback 1.53236 -5.61782 -0.344448
thorax -7.07394 -2.75031 0.536183
lowerneck 12.1434 5.79578 15.1029
upperneck -15.1718 7.92017 -18.2559
head -5.06503 4.52589 -9.00246
rclavicle -2.46493e-014 2.54444e-014
rhumerus -31.3663 -28.6035 -8.7712
rradius 132.704
rwrist -42.4397
rhand -12.7016 -5.79516
rfingers 7.12502
rthumb 13.3808 -35.3455
lclavicle -2.46493e-014 2.54444e-014
lhumerus -24.0398 18.8441 -3.57605
lradius 124.988
lwrist 78.8939
lhand -39.9285 42.1935
lfingers 7.12502
lthumb -12.8988 71.7749
rfemur -60.9254 -18.7955 11.5467
rtibia 87.5945
rfoot -8.44016 -4.04043
rtoes 24.9587
lfemur -28.1844 8.83745 -15.3451
ltibia 46.7216
lfoot -34.743 8.76742
ltoes -46.9227
105
root 28.2298 16.3885 -28.9066 18.7106 -33.3366 1.98783
lowerback 15.2985 -4.54103 0.758304
upperback 1.46076 -5.88429 -0.0748501
thorax -7.07657 -2.88256 0.736834
lowerneck 12.0115 5.93827 15.1019
upperneck -14.7253 8.11256 -18.4446
head -4.86272 4.63352 -9.03488
rclavicle 5.24792e-014 -4.25399e-014
rhumerus -30.5386 -28.9122 -8.14752
rradius 132.737
rwrist -41.922
rhand -12.2292 -5.29385
rfingers 7.12502
rthumb 13.8361 -34.8137
lclavicle 5.24792e-014 -4.25399e-014
lhumerus -22.8692 18.7026 -3.49108
lradius 124.557
lwrist 78.3248
lhand -39.6106 41.8068
lfingers 7.12502
lthumb -12.5924 71.4072
rfemur -61.3673 -18.857 11.6271
rtibia 86.5562
rfoot -8.364 -4.42048
rtoes 26.133
lfemur -26.0882 8.35335 -15.1689
ltibia 44.1186
lfoot -33.8984 7.75687
ltoes -45.9218
